<svg width="337" height="342" viewBox="0 0 337 342" fill="none" xmlns="http://www.w3.org/2000/svg">
<path d="M202.008 310.422L202.027 309.423L202.008 310.422ZM120.979 244.894L121.003 245.893L121.023 245.893L121.043 245.892L120.979 244.894ZM101.014 253.515L100.269 254.181L100.935 254.927L101.681 254.261L101.014 253.515ZM78.4982 228.324L77.8318 227.578L77.0862 228.245L77.7526 228.99L78.4982 228.324ZM89.4966 209.671L90.4842 209.828L90.4848 209.824L89.4966 209.671ZM33.4357 121.825L34.4314 121.918L33.4357 121.825ZM67.9363 80.5608L68.6819 79.8944L68.0155 79.1488L67.2699 79.8152L67.9363 80.5608ZM88.6592 103.745L89.3256 104.491L90.0712 103.825L89.4047 103.079L88.6592 103.745ZM73.2771 117.494L72.6107 116.749L71.8651 117.415L72.5315 118.161L73.2771 117.494ZM123.277 177.472L122.335 177.806L122.339 177.818L122.343 177.829L123.277 177.472ZM125.945 190.327L124.945 190.367L125.945 190.327ZM124.366 203.367L125.317 203.679L125.323 203.66L125.328 203.642L124.366 203.367ZM118.438 214.682L117.644 214.074L117.141 214.731L117.693 215.348L118.438 214.682ZM119.235 215.573L118.49 216.24L119.041 216.857L119.75 216.43L119.235 215.573ZM131.34 211.17L131.506 212.156L131.525 212.153L131.544 212.149L131.34 211.17ZM144.276 210.836L144.428 209.848L144.276 210.836ZM156.952 215.147L156.479 216.028L156.504 216.041L156.529 216.053L156.952 215.147ZM210.765 271.315L210.02 271.981L210.686 272.727L211.432 272.061L210.765 271.315ZM226.147 257.566L226.893 256.9L226.227 256.154L225.481 256.821L226.147 257.566ZM246.87 280.751L247.537 281.496L248.282 280.83L247.616 280.084L246.87 280.751ZM221.905 301.724C215.984 307.016 209.371 309.562 202.027 309.423L201.989 311.422C209.876 311.572 216.971 308.817 223.237 303.215L221.905 301.724ZM202.027 309.423C194.764 309.285 187.947 305.753 181.567 298.616L180.076 299.948C186.715 307.376 194.023 311.271 201.989 311.422L202.027 309.423ZM181.567 298.616L141.118 253.361L139.627 254.694L180.076 299.948L181.567 298.616ZM141.118 253.361C135.122 246.653 128.378 243.422 120.916 243.896L121.043 245.892C127.749 245.466 133.933 248.324 139.627 254.694L141.118 253.361ZM120.956 243.894C113.608 244.069 106.733 247.062 100.348 252.769L101.681 254.261C107.78 248.809 114.215 246.055 121.003 245.893L120.956 243.894ZM101.76 252.849L79.2438 227.658L77.7526 228.99L100.269 254.181L101.76 252.849ZM79.1646 229.07C85.5415 223.37 89.3507 216.956 90.4842 209.828L88.509 209.514C87.4619 216.099 83.9389 222.12 77.8318 227.578L79.1646 229.07ZM90.4848 209.824C91.6465 202.327 89.1311 195.199 83.1339 188.489L81.6427 189.822C87.3353 196.191 89.5588 202.739 88.5084 209.518L90.4848 209.824ZM83.1339 188.489L42.8837 143.457L41.3925 144.79L81.6427 189.822L83.1339 188.489ZM42.8837 143.457C36.5044 136.32 33.7566 129.151 34.4314 121.918L32.4401 121.732C31.6999 129.666 34.7536 137.363 41.3925 144.79L42.8837 143.457ZM34.4314 121.918C35.1137 114.605 38.3833 108.317 44.3035 103.026L42.9707 101.534C36.7041 107.136 33.1728 113.878 32.4401 121.732L34.4314 121.918ZM44.3035 103.026L68.6027 81.3064L67.2699 79.8152L42.9707 101.534L44.3035 103.026ZM67.1907 81.2272L87.9136 104.412L89.4047 103.079L68.6819 79.8944L67.1907 81.2272ZM87.9928 103L72.6107 116.749L73.9435 118.24L89.3256 104.491L87.9928 103ZM72.5315 118.161L115.372 166.09L116.863 164.757L74.0227 116.828L72.5315 118.161ZM115.372 166.09C118.475 169.561 120.794 173.465 122.335 177.806L124.22 177.137C122.591 172.549 120.137 168.42 116.863 164.757L115.372 166.09ZM122.343 177.829C123.906 181.914 124.772 186.092 124.945 190.367L126.944 190.286C126.762 185.789 125.85 181.398 124.211 177.115L122.343 177.829ZM124.945 190.367C125.119 194.645 124.606 198.886 123.405 203.093L125.328 203.642C126.586 199.234 127.126 194.781 126.944 190.286L124.945 190.367ZM123.416 203.056C122.088 207.111 120.163 210.781 117.644 214.074L119.232 215.289C121.892 211.813 123.92 207.941 125.317 203.679L123.416 203.056ZM117.693 215.348L118.49 216.24L119.981 214.907L119.184 214.015L117.693 215.348ZM119.75 216.43C123.29 214.303 127.205 212.877 131.506 212.156L131.175 210.184C126.64 210.944 122.485 212.453 118.72 214.716L119.75 216.43ZM131.544 212.149C135.711 211.284 139.903 211.176 144.124 211.825L144.428 209.848C139.972 209.163 135.539 209.277 131.137 210.191L131.544 212.149ZM144.124 211.825C148.344 212.473 152.461 213.871 156.479 216.028L157.425 214.266C153.22 212.008 148.886 210.533 144.428 209.848L144.124 211.825ZM156.529 216.053C160.527 217.918 164.077 220.581 167.179 224.052L168.67 222.719C165.397 219.056 161.631 216.226 157.375 214.241L156.529 216.053ZM167.179 224.052L210.02 271.981L211.511 270.649L168.67 222.719L167.179 224.052ZM211.432 272.061L226.814 258.312L225.481 256.821L210.099 270.569L211.432 272.061ZM225.402 258.233L246.125 281.417L247.616 280.084L226.893 256.9L225.402 258.233ZM246.204 280.005L221.905 301.724L223.237 303.215L247.537 281.496L246.204 280.005ZM135.107 30.9492L135.126 29.9493L135.107 30.9492ZM215.913 96.6774L215.937 97.6771L215.956 97.6766L215.976 97.6754L215.913 96.6774ZM235.901 87.6337L236.647 86.9673L235.981 86.2217L235.235 86.8881L235.901 87.6337ZM258.418 112.825L259.084 113.57L259.83 112.904L259.163 112.158L258.418 112.825ZM247.396 131.9L248.383 132.057L248.384 132.053L247.396 131.9ZM303.679 219.547L304.675 219.64L303.679 219.547ZM269.179 260.811L268.433 261.477L269.1 262.223L269.845 261.556L269.179 260.811ZM248.456 237.626L247.79 236.881L247.044 237.547L247.71 238.293L248.456 237.626ZM263.838 223.877L264.504 224.623L265.25 223.957L264.584 223.211L263.838 223.877ZM213.615 164.099L212.673 164.434L212.677 164.445L212.681 164.456L213.615 164.099ZM210.971 150.822L211.97 150.781L210.971 150.822ZM212.749 138.004L213.699 138.316L213.705 138.297L213.71 138.279L212.749 138.004ZM218.478 126.467L219.272 127.075L219.775 126.418L219.223 125.801L218.478 126.467ZM217.681 125.575L218.426 124.909L217.875 124.292L217.166 124.718L217.681 125.575ZM205.775 130.202L205.94 131.188L205.959 131.185L205.978 131.181L205.775 130.202ZM192.64 130.312L192.488 131.301L192.488 131.301L192.64 130.312ZM179.94 126.424L179.467 127.305L179.492 127.318L179.518 127.33L179.94 126.424ZM126.35 70.0567L127.095 69.3903L126.429 68.6447L125.683 69.3112L126.35 70.0567ZM110.968 83.8056L110.222 84.472L110.889 85.2176L111.634 84.5511L110.968 83.8056ZM90.2448 60.621L89.5784 59.8754L88.8328 60.5418L89.4992 61.2874L90.2448 60.621ZM115.21 39.6474C121.131 34.3558 127.745 31.8095 135.088 31.949L135.126 29.9493C127.239 29.7996 120.144 32.5551 113.878 38.1563L115.21 39.6474ZM135.088 31.949C142.351 32.0869 149.168 35.6189 155.548 42.756L157.039 41.4231C150.4 33.9955 143.092 30.1006 135.126 29.9493L135.088 31.949ZM155.548 42.756L195.798 87.7875L197.289 86.4547L157.039 41.4231L155.548 42.756ZM195.798 87.7875C201.787 94.4881 208.507 97.8541 215.937 97.6771L215.889 95.6777C209.183 95.8374 202.99 92.8326 197.289 86.4547L195.798 87.7875ZM215.976 97.6754C223.322 97.2088 230.19 94.08 236.568 88.3793L235.235 86.8881C229.129 92.3459 222.671 95.2461 215.849 95.6794L215.976 97.6754ZM235.156 88.3001L257.672 113.491L259.163 112.158L236.647 86.9673L235.156 88.3001ZM257.751 112.079C251.365 117.787 247.554 124.345 246.407 131.747L248.384 132.053C249.449 125.18 252.986 119.021 259.084 113.57L257.751 112.079ZM246.408 131.743C245.258 138.972 247.794 145.961 253.782 152.66L255.273 151.327C249.571 144.948 247.352 138.541 248.383 132.057L246.408 131.743ZM253.782 152.66L294.231 197.914L295.723 196.581L255.273 151.327L253.782 152.66ZM294.231 197.914C300.611 205.051 303.359 212.22 302.684 219.454L304.675 219.64C305.415 211.706 302.362 204.009 295.723 196.581L294.231 197.914ZM302.684 219.454C302.001 226.767 298.732 233.054 292.812 238.346L294.144 239.837C300.411 234.236 303.942 227.494 304.675 219.64L302.684 219.454ZM292.812 238.346L268.512 260.065L269.845 261.556L294.144 239.837L292.812 238.346ZM269.924 260.144L249.202 236.96L247.71 238.293L268.433 261.477L269.924 260.144ZM249.122 238.372L264.504 224.623L263.172 223.132L247.79 236.881L249.122 238.372ZM264.584 223.211L221.544 175.058L220.053 176.391L263.092 224.544L264.584 223.211ZM221.544 175.058C218.431 171.576 216.103 167.804 214.549 163.742L212.681 164.456C214.328 168.761 216.789 172.74 220.053 176.391L221.544 175.058ZM214.557 163.765C213.003 159.386 212.144 155.06 211.97 150.781L209.972 150.862C210.154 155.357 211.057 159.881 212.673 164.434L214.557 163.765ZM211.97 150.781C211.798 146.514 212.374 142.361 213.699 138.316L211.798 137.693C210.399 141.966 209.79 146.357 209.972 150.862L211.97 150.781ZM213.71 138.279C214.907 134.086 216.762 130.354 219.272 127.075L217.684 125.859C215.014 129.348 213.049 133.308 211.787 137.73L213.71 138.279ZM219.223 125.801L218.426 124.909L216.935 126.242L217.732 127.134L219.223 125.801ZM217.166 124.718C213.612 126.854 209.749 128.356 205.571 129.223L205.978 131.181C210.37 130.27 214.444 128.687 218.196 126.433L217.166 124.718ZM205.609 129.216C201.294 129.939 197.023 129.974 192.791 129.324L192.488 131.301C196.934 131.984 201.419 131.946 205.94 131.188L205.609 129.216ZM192.791 129.324C188.55 128.672 184.408 127.405 180.363 125.518L179.518 127.33C183.727 129.294 188.051 130.619 192.488 131.301L192.791 129.324ZM180.413 125.543C176.407 123.393 172.849 120.579 169.737 117.097L168.245 118.43C171.509 122.081 175.251 125.042 179.467 127.305L180.413 125.543ZM169.737 117.097L127.095 69.3903L125.604 70.7232L168.245 118.43L169.737 117.097ZM125.683 69.3112L110.301 83.06L111.634 84.5511L127.016 70.8023L125.683 69.3112ZM111.713 83.1391L90.9904 59.9546L89.4992 61.2874L110.222 84.472L111.713 83.1391ZM90.9112 61.3666L115.21 39.6474L113.878 38.1563L89.5784 59.8754L90.9112 61.3666Z" fill="#1F1F1F"/>
</svg>
